%FSLAX23Y23*%
%MOMM*%
G04 EasyPC Gerber Version 16.0.6 Build 3249 *
%AMT70*0 Rounded Rectangle Pad at angle 0*4,1,12,-0.40000,-0.50000,0.40000,-0.50000,0.43540,-0.48540,0.45000,-0.45000,0.45000,0.45000,0.43540,0.48540,0.40000,0.50000,-0.40000,0.50000,-0.43540,0.48540,-0.45000,0.45000,-0.45000,-0.45000,-0.43540,-0.48540,-0.40000,-0.50000,0*%
%ADD70T70*%
%AMT22*0 Rounded Rectangle Pad at angle 90*4,1,12,0.50000,-0.40000,0.50000,0.40000,0.48540,0.43540,0.45000,0.45000,-0.45000,0.45000,-0.48540,0.43540,-0.50000,0.40000,-0.50000,-0.40000,-0.48540,-0.43540,-0.45000,-0.45000,0.45000,-0.45000,0.48540,-0.43540,0.50000,-0.40000,0*%
%ADD22T22*%
%AMT126*0 Rounded Rectangle Pad at angle 135*4,1,12,0.63640,0.07070,0.07070,0.63640,0.03540,0.65100,0.00000,0.63640,-0.63640,0.00000,-0.65110,-0.03530,-0.63640,-0.07070,-0.07070,-0.63640,-0.03540,-0.65100,0.00000,-0.63640,0.63640,0.00000,0.65110,0.03530,0.63640,0.07070,0*%
%ADD126T126*%
%ADD118R,0.25000X0.40000*%
%ADD123R,1.00000X1.40000*%
%ADD10C,0.10000*%
%ADD80C,0.12700*%
%ADD107C,0.15000*%
%ADD15C,0.25400*%
%ADD99C,0.60000*%
%ADD128C,0.95000*%
%ADD117C,1.30000*%
%ADD119R,0.40000X0.25000*%
%ADD127R,4.20000X1.20000*%
X0Y0D02*
D02*
D10*
X9686Y17375D02*
G75*
G02X9444Y16380I-686J-360D01*
G01*
G75*
G02X9681Y15375I-444J-635*
G01*
X12850*
Y14188*
X13375Y14712*
G75*
G02X13694I160J-160*
G01*
X14435Y13971*
G75*
G02Y13652I-160J-160*
G01*
X13623Y12840*
G75*
G02X13304I-160J160*
G01*
X12900Y13244*
Y11750*
G75*
G02X13034Y11715J-275*
G01*
X13849*
G75*
G02X14040Y11524J-191*
G01*
Y10426*
G75*
G02X13849Y10235I-191*
G01*
X12900*
Y10225*
X12850Y10175*
Y8875*
X14600*
X16073Y10348*
X15723*
G75*
G02X15549Y10235I-174J78*
G01*
X14551*
G75*
G02X14360Y10426J191*
G01*
Y11524*
G75*
G02X14517Y11712I191*
G01*
X13825Y12404*
G75*
G02Y12674I135J135*
G01*
X14601Y13450*
G75*
G02X14871I135J-135*
G01*
X15577Y12744*
G75*
G02Y12474I-135J-135*
G01*
X15072Y11969*
G75*
G02X15075Y11925I-272J-44*
G01*
Y11715*
X15549*
G75*
G02X15740Y11524J-191*
G01*
Y11002*
X16200*
G75*
G02X16300Y10986I0J-327*
G01*
Y12325*
X14500Y14125*
Y14274*
G75*
G02X14354Y14340I14J225*
G01*
X13613Y15081*
G75*
G02Y15400I160J160*
G01*
X14044Y15831*
X13600Y16275*
X12876*
G75*
G02X12650Y16501J226*
G01*
Y17225*
X12500Y17375*
X9686*
G36*
G75*
G02X9444Y16380I-686J-360*
G01*
G75*
G02X9681Y15375I-444J-635*
G01*
X12850*
Y14188*
X13375Y14712*
G75*
G02X13694I160J-160*
G01*
X14435Y13971*
G75*
G02Y13652I-160J-160*
G01*
X13623Y12840*
G75*
G02X13304I-160J160*
G01*
X12900Y13244*
Y11750*
G75*
G02X13034Y11715J-275*
G01*
X13849*
G75*
G02X14040Y11524J-191*
G01*
Y10426*
G75*
G02X13849Y10235I-191*
G01*
X12900*
Y10225*
X12850Y10175*
Y8875*
X14600*
X16073Y10348*
X15723*
G75*
G02X15549Y10235I-174J78*
G01*
X14551*
G75*
G02X14360Y10426J191*
G01*
Y11524*
G75*
G02X14517Y11712I191*
G01*
X13825Y12404*
G75*
G02Y12674I135J135*
G01*
X14601Y13450*
G75*
G02X14871I135J-135*
G01*
X15577Y12744*
G75*
G02Y12474I-135J-135*
G01*
X15072Y11969*
G75*
G02X15075Y11925I-272J-44*
G01*
Y11715*
X15549*
G75*
G02X15740Y11524J-191*
G01*
Y11002*
X16200*
G75*
G02X16300Y10986I0J-327*
G01*
Y12325*
X14500Y14125*
Y14274*
G75*
G02X14354Y14340I14J225*
G01*
X13613Y15081*
G75*
G02Y15400I160J160*
G01*
X14044Y15831*
X13600Y16275*
X12876*
G75*
G02X12650Y16501J226*
G01*
Y17225*
X12500Y17375*
X9686*
G37*
D02*
D15*
X12500Y17925D02*
X10050D01*
X9700Y18275*
X9090*
X9080Y18285*
X9000*
X15200Y8775D02*
X16100Y9675D01*
X16250*
X15751Y13575D02*
X16700Y12626D01*
Y11775*
X16200Y10675D02*
X15350D01*
X15050Y10975*
X16250Y10025D02*
Y9675D01*
X17350Y17725D02*
X17200Y17875D01*
Y20615*
X16820Y20995*
X20500Y17675D02*
Y17775D01*
X20550*
Y17875*
Y20965*
X20580Y20995*
X20630*
X20550Y17875D02*
Y17775D01*
X20500*
Y17675*
D02*
D70*
X10650Y4375D03*
X10850Y19275D03*
X12350Y4375D03*
X12550Y19275D03*
X13350Y10975D03*
X13400Y17075D03*
X14450Y19275D03*
X15050Y10975D03*
X15100Y17075D03*
X16150Y19275D03*
X18400Y4375D03*
X20100D03*
X22150Y19275D03*
X23850Y9675D03*
Y19275D03*
X25550Y9675D03*
D02*
D22*
X10800Y6125D03*
Y7825D03*
X12400Y6125D03*
Y7825D03*
X14500Y6325D03*
Y8025D03*
X18200Y14025D03*
Y15725D03*
Y17725D03*
Y19425D03*
X19600Y14025D03*
Y15725D03*
Y17725D03*
Y19425D03*
X25200Y16125D03*
Y17825D03*
D02*
D80*
X9412Y15745D02*
X9789D01*
X9412Y17015D02*
X9789D01*
X10450Y15012D02*
Y15389D01*
X12486Y9395D02*
X12864D01*
X12486Y14475D02*
X12864D01*
X13014Y17075D02*
X12636D01*
X13190Y13467D02*
X12924Y13201D01*
X13226Y14049D02*
X12959Y14316D01*
X13400Y16639D02*
Y16262D01*
X13772Y13503D02*
X14039Y13236D01*
X13808Y14085D02*
X14074Y14351D01*
X14240Y14967D02*
X13974Y14701D01*
X14276Y15549D02*
X14009Y15816D01*
D02*
D99*
X10400Y15875D03*
X12300Y15775D03*
X12350Y16975D03*
X13200Y9275D03*
X13400Y15475D03*
X13500Y6275D03*
X15200Y9775D03*
X16000Y11875D03*
X17950Y16675D03*
X19800D03*
X25750Y4176D03*
D02*
D107*
X9000Y6855D02*
X9130D01*
X10050Y7775*
X10750*
X10800Y7825*
X9000Y8085D02*
Y9175D01*
X9200Y9375*
X10310Y9395*
X13020*
X13400Y9775*
X15200*
X9000Y17015D02*
Y15745D01*
X10450Y11935D02*
Y11475D01*
X12900*
X13400Y10975*
X13350*
X10650Y4375D02*
Y2955D01*
X10470Y2775*
X10800Y6125D02*
Y6075D01*
X9780*
X9200Y5495*
X9000*
Y5585*
X10800Y7825D02*
X12500D01*
X12450Y7775*
Y7675*
X12900Y8125*
X14550*
X15200Y8775*
X10850Y19275D02*
X10550D01*
Y20615*
X10470Y20695*
Y20995*
X11740Y2775D02*
Y3075D01*
X11800*
X12100Y3375*
Y4225*
X12250Y4375*
X12350*
X11740Y2775D02*
X11840Y2875D01*
X11900*
X12400Y6125D02*
X10800D01*
X12400D02*
X13350D01*
X13500Y6275*
X12550Y19275D02*
X13500Y18325D01*
X15600*
X16400Y17525*
Y14775*
X16800Y14375*
Y13325*
X17750Y12375*
Y12125*
X12550Y19275D02*
X12400Y19425D01*
Y20335*
X11740Y20995*
X13400Y15475D02*
X13500D01*
X13700Y15275*
X14600*
X14500Y15475*
Y15276*
X14549*
X13400Y17075D02*
X13050D01*
Y16975*
X12350*
X14450Y19275D02*
X14700D01*
Y20075*
X15600Y20975*
X15550*
Y20995*
X14500Y6425D02*
Y6375D01*
X13500*
Y6275*
X15050Y10975D02*
X14800D01*
Y11925*
X14251Y12474*
X14501*
X15100Y17075D02*
Y17575D01*
X14750Y17925*
X12500*
X15751Y14074D02*
Y16425D01*
X15100Y17076*
Y17075*
X15751Y14074D02*
Y13575D01*
X16250Y9675D02*
X16300Y9625D01*
X16750*
X16700Y11775D02*
Y11175D01*
X16750Y11125*
Y7625D02*
X16700D01*
Y4575*
X15900Y3775*
X15100*
X14280Y2955*
Y2775*
X16750Y8125D02*
X16450D01*
X16200Y7875*
Y4775*
X15600Y4175*
X14000*
X13000Y3175*
Y3165*
X13010Y3155*
Y2775*
X16750Y8625D02*
X16250D01*
X15800Y8175*
Y5075*
X15400Y4675*
X12650*
X12350Y4375*
X16750Y9125D02*
X16100D01*
X15400Y8425*
Y5375*
X15300Y5275*
X10000*
X9000Y4275*
X16750Y10125D02*
X16350D01*
X16250Y10025*
X16750Y10625D02*
X16250D01*
X16200Y10675*
X16750Y11125D02*
X16700D01*
X17750Y6625D02*
Y6325D01*
X17100Y5675*
Y4375*
X15800Y3075*
X15550*
Y2775*
X18090D02*
Y4065D01*
X18400Y4375*
X18100Y15725D02*
X17950D01*
Y16675*
X18200Y14025D02*
X18300D01*
Y13975*
X17300Y14975*
Y17675*
X17350Y17725*
X18200D02*
X17350D01*
X18200Y19425D02*
Y20885D01*
X18090Y20995*
X18250Y6625D02*
Y6225D01*
X17500Y5475*
Y3425*
X16850Y2775*
X16820*
X18250Y12125D02*
Y12575D01*
X17200Y13625*
Y14475*
X16800Y14875*
Y17675*
X16150Y18325*
Y19275*
X18400Y4375D02*
Y5475D01*
X18750Y5825*
Y6625*
Y12125D02*
Y12875D01*
X18200Y13425*
Y14025*
X19250Y6625D02*
Y2885D01*
X19360Y2775*
X19250Y12125D02*
Y13725D01*
X19550Y14025*
X19600*
X19650Y14075*
X19700*
X20500Y14875*
Y17675*
X19600Y17725D02*
X20450D01*
X20500Y17675*
X19600Y19425D02*
Y20755D01*
X19360Y20995*
X19800Y16675D02*
Y15925D01*
X19600Y15725*
X20100Y4375D02*
Y4325D01*
X20700Y3725*
Y2845*
X20630Y2775*
X20250Y6625D02*
Y6325D01*
X21200Y5375*
X21500*
X23100Y3775*
Y2685*
X23170Y2715*
Y2775*
X20750Y6625D02*
Y6275D01*
X21250Y5775*
X21900*
X24300Y3375*
Y2915*
X24440Y2775*
X20750Y12125D02*
Y12475D01*
X21050Y12775*
X23700*
X26400Y15475*
Y16375*
X26870Y16845*
X27090*
X27180Y16935*
X21250Y12125D02*
Y12175D01*
X24050*
X26150Y14275*
Y14625*
X26590Y15065*
Y15075*
X21900Y2775D02*
X22000Y2875D01*
Y3975*
X19750Y6225*
Y6625*
X22100Y13175D02*
X21700D01*
X22150Y17675D02*
Y17075D01*
X21300Y16225*
Y14325*
X19750Y12775*
Y12125*
X22150Y19275D02*
Y17675D01*
X22200Y13175D02*
X22100D01*
X22200D02*
X22100D01*
X22250Y7625D02*
X22350D01*
Y7325*
X23549Y6126*
X23599*
Y6275*
X25700*
X26450Y5525*
X26960*
X26980Y5505*
X27180*
X22250Y8125D02*
X22500D01*
X23350Y7275*
X25800*
X26300Y6775*
X27180*
X22250Y8625D02*
X22800D01*
X23550Y7875*
X27010*
X27180Y8045*
X22250Y9125D02*
X22950D01*
X23500Y8575*
X26300*
X27040Y9315*
X27180*
X22250Y9625D02*
X23850D01*
Y9675*
X22250Y10125D02*
X22700D01*
X23400Y10825*
X25800*
X26830Y11855*
X27180*
X22250Y10625D02*
X22550D01*
X23300Y11375*
X25430*
X27180Y13125*
X23170Y20995D02*
X21900D01*
X23750Y15275D02*
X23800D01*
X22700Y13775*
X21450*
X20250Y12575*
Y12125*
X23750Y17675D02*
X23600D01*
Y16975*
X22000Y15375*
X22150*
Y15275*
X23800Y20175D02*
X24500D01*
X23800D02*
X21600D01*
X21100Y19675*
Y16775*
X20900Y16575*
Y14375*
X20500Y13975*
X23850Y19275D02*
Y20125D01*
X23800Y20175*
X23850Y19275D02*
X23750D01*
Y17675*
X24500Y20175D02*
Y20935D01*
X24440Y20995*
X24500Y20175D02*
X25200D01*
X26200Y19175*
Y18275*
X24801Y4874D02*
X24950D01*
Y5075*
X25751Y4275*
X25750*
Y4176*
X25200Y16125D02*
X24550Y15475D01*
X23950*
X23750Y15275*
X25200Y17825D02*
X26200D01*
Y18275*
X25200Y17825D02*
Y18075D01*
X24300*
X23650Y17675*
X23750*
X25550Y9675D02*
Y9475D01*
X25300*
X26210Y10385*
X27180*
Y10585*
X25710Y2775D02*
Y2565D01*
X25810*
Y3115*
X25250Y3675*
X24650*
X21800Y6525*
X21250*
Y6625*
X26200Y18275D02*
Y16725D01*
X26050Y16575*
Y15625*
X24300Y13875*
X23600*
X22900Y13175*
X22200*
X26590Y15075D02*
X27180Y15665D01*
Y14395D02*
Y14325D01*
X26900Y14045*
X26870*
X24600Y11775*
X23100*
X22450Y11125*
X22250*
X27180Y19475D02*
Y18205D01*
D02*
D117*
X18500Y8475D03*
Y10375D03*
X20400Y8475D03*
Y10375D03*
D02*
D118*
X17750Y6625D03*
Y12125D03*
X18250Y6625D03*
Y12125D03*
X18750Y6625D03*
Y12125D03*
X19250Y6625D03*
Y12125D03*
X19750Y6625D03*
Y12125D03*
X20250Y6625D03*
Y12125D03*
X20750Y6625D03*
Y12125D03*
X21250Y6625D03*
Y12125D03*
D02*
D119*
X16750Y7625D03*
Y8125D03*
Y8625D03*
Y9125D03*
Y9625D03*
Y10125D03*
Y10625D03*
Y11125D03*
X22250Y7625D03*
Y8125D03*
Y8625D03*
Y9125D03*
Y9625D03*
Y10125D03*
Y10625D03*
Y11125D03*
D02*
D123*
X22150Y15275D03*
Y17675D03*
X23750Y15275D03*
Y17675D03*
D02*
D126*
X13499Y13776D03*
X14549Y15276D03*
X14701Y12574D03*
X15751Y14074D03*
X23799Y6176D03*
X25001Y4974D03*
D02*
D127*
X10450Y9395D03*
Y11935D03*
Y14475D03*
D02*
D128*
X9000Y4315D03*
Y5585D03*
Y6855D03*
Y8125D03*
Y15745D03*
Y17015D03*
Y18285D03*
Y19555D03*
X10470Y2775D03*
Y20995D03*
X11740Y2775D03*
Y20995D03*
X13010Y2775D03*
Y20995D03*
X14280Y2775D03*
Y20995D03*
X15550Y2775D03*
Y20995D03*
X16820Y2775D03*
Y20995D03*
X18090Y2775D03*
Y20995D03*
X19360Y2775D03*
Y20995D03*
X20630Y2775D03*
Y20995D03*
X21900Y2775D03*
Y20995D03*
X23170Y2775D03*
Y20995D03*
X24440Y2775D03*
Y20995D03*
X25710Y2775D03*
Y20995D03*
X27180Y4235D03*
Y5505D03*
Y6775D03*
Y8045D03*
Y9315D03*
Y10585D03*
Y11855D03*
Y13125D03*
Y14395D03*
Y15665D03*
Y16935D03*
Y18205D03*
Y19475D03*
X0Y0D02*
M02*
