%FSLAX23Y23*%
%MOMM*%
G04 EasyPC Gerber Version 16.0.6 Build 3249 *
%ADD80C,0.12700*%
%ADD83C,2.54000*%
%ADD84C,2.54000*%
X0Y0D02*
D02*
D80*
X11937Y5823D02*
Y6776D01*
X11540D02*
X12334D01*
X11937Y7093D02*
Y8046D01*
X11540D02*
X12334D01*
X11937Y8363D02*
Y9316D01*
X11540D02*
X12334D01*
X11937Y9633D02*
Y10586D01*
X11540D02*
X12334D01*
X11937Y17253D02*
Y18206D01*
X11540D02*
X12334D01*
X11937Y18523D02*
Y19476D01*
X11540D02*
X12334D01*
X11937Y19793D02*
Y20746D01*
X11540D02*
X12334D01*
X11937Y21063D02*
Y22016D01*
X11540D02*
X12334D01*
X12940Y17383D02*
Y18336D01*
X13416*
X13575Y18256*
X13654Y18177*
X13734Y18018*
Y17701*
X13654Y17542*
X13575Y17463*
X13416Y17383*
X12940*
X13407Y4283D02*
Y5236D01*
X13010D02*
X13804D01*
X13407Y22503D02*
Y23456D01*
X13010D02*
X13804D01*
X14677Y4283D02*
Y5236D01*
X14280D02*
X15074D01*
X14677Y22503D02*
Y23456D01*
X14280D02*
X15074D01*
X14840Y17283D02*
Y18236D01*
X15316*
X15475Y18156*
X15554Y18077*
X15634Y17918*
Y17601*
X15554Y17442*
X15475Y17363*
X15316Y17283*
X14840*
X14890Y18483D02*
Y19436D01*
X15366*
X15525Y19356*
X15604Y19277*
X15684Y19118*
Y18801*
X15604Y18642*
X15525Y18563*
X15366Y18483*
X14890*
X15947Y4283D02*
Y5236D01*
X15550D02*
X16344D01*
X15947Y22503D02*
Y23456D01*
X15550D02*
X16344D01*
X15740Y10783D02*
Y11736D01*
X16216*
X16375Y11656*
X16454Y11577*
X16534Y11418*
Y11101*
X16454Y10942*
X16375Y10863*
X16216Y10783*
X15740*
X15940Y16983D02*
Y17936D01*
X16416*
X16575Y17856*
X16654Y17777*
X16734Y17618*
Y17301*
X16654Y17142*
X16575Y17063*
X16416Y16983*
X15940*
X16040Y7783D02*
Y8736D01*
X16516*
X16675Y8656*
X16754Y8577*
X16834Y8418*
Y8101*
X16754Y7942*
X16675Y7863*
X16516Y7783*
X16040*
X17217Y4283D02*
Y5236D01*
X16820D02*
X17614D01*
X17217Y22503D02*
Y23456D01*
X16820D02*
X17614D01*
X17740Y11283D02*
Y12236D01*
X18216*
X18375Y12156*
X18454Y12077*
X18534Y11918*
Y11601*
X18454Y11442*
X18375Y11363*
X18216Y11283*
X17740*
X18487Y4283D02*
Y5236D01*
X18090D02*
X18884D01*
X18487Y22503D02*
Y23456D01*
X18090D02*
X18884D01*
X18540Y13383D02*
Y14336D01*
X19016*
X19175Y14256*
X19254Y14177*
X19334Y14018*
Y13701*
X19254Y13542*
X19175Y13463*
X19016Y13383*
X18540*
X19757Y4283D02*
Y5236D01*
X19360D02*
X20154D01*
X19757Y22503D02*
Y23456D01*
X19360D02*
X20154D01*
X20490Y18183D02*
Y19136D01*
X20966*
X21125Y19056*
X21204Y18977*
X21284Y18818*
Y18501*
X21204Y18342*
X21125Y18263*
X20966Y18183*
X20490*
X21027Y4283D02*
Y5236D01*
X20630D02*
X21424D01*
X21027Y22503D02*
Y23456D01*
X20630D02*
X21424D01*
X21040Y9983D02*
Y10936D01*
Y10459D02*
X21834D01*
Y9983D02*
Y10936D01*
X21040Y11883D02*
Y12836D01*
Y12359D02*
X21834D01*
Y11883D02*
Y12836D01*
X22297Y4283D02*
Y5236D01*
X21900D02*
X22694D01*
X22297Y22503D02*
Y23456D01*
X21900D02*
X22694D01*
X22340Y18183D02*
Y19136D01*
X22816*
X22975Y19056*
X23054Y18977*
X23134Y18818*
Y18501*
X23054Y18342*
X22975Y18263*
X22816Y18183*
X22340*
X22940Y9983D02*
Y10936D01*
Y10459D02*
X23734D01*
Y9983D02*
Y10936D01*
X22940Y11883D02*
Y12836D01*
Y12359D02*
X23734D01*
Y11883D02*
Y12836D01*
X23567Y4283D02*
Y5236D01*
X23170D02*
X23964D01*
X23567Y22503D02*
Y23456D01*
X23170D02*
X23964D01*
X24837Y4283D02*
Y5236D01*
X24440D02*
X25234D01*
X24837Y22503D02*
Y23456D01*
X24440D02*
X25234D01*
X26107Y4283D02*
Y5236D01*
X25710D02*
X26504D01*
X26107Y22503D02*
Y23456D01*
X25710D02*
X26504D01*
X27377Y4283D02*
Y5236D01*
X26980D02*
X27774D01*
X27377Y22503D02*
Y23456D01*
X26980D02*
X27774D01*
X28647Y4283D02*
Y5236D01*
X28250D02*
X29044D01*
X28647Y22503D02*
Y23456D01*
X28250D02*
X29044D01*
X28290Y5684D02*
Y6637D01*
X28766*
X28925Y6557*
X29004Y6478*
X29084Y6319*
Y6002*
X29004Y5843*
X28925Y5764*
X28766Y5684*
X28290*
X30117Y5743D02*
Y6696D01*
X29720D02*
X30514D01*
X30117Y7013D02*
Y7966D01*
X29720D02*
X30514D01*
X30117Y8283D02*
Y9236D01*
X29720D02*
X30514D01*
X30117Y9553D02*
Y10506D01*
X29720D02*
X30514D01*
X30117Y10823D02*
Y11776D01*
X29720D02*
X30514D01*
X30117Y12093D02*
Y13046D01*
X29720D02*
X30514D01*
X30117Y13363D02*
Y14316D01*
X29720D02*
X30514D01*
X30117Y14633D02*
Y15586D01*
X29720D02*
X30514D01*
X30117Y15903D02*
Y16856D01*
X29720D02*
X30514D01*
X30117Y17173D02*
Y18126D01*
X29720D02*
X30514D01*
X30117Y18443D02*
Y19396D01*
X29720D02*
X30514D01*
X30117Y19713D02*
Y20666D01*
X29720D02*
X30514D01*
X30117Y20983D02*
Y21936D01*
X29720D02*
X30514D01*
D02*
D83*
X9000Y4315D03*
Y5585D03*
Y6855D03*
Y8125D03*
Y15745D03*
Y17015D03*
Y18285D03*
Y19555D03*
X10470Y2775D03*
Y20995D03*
X11740Y2775D03*
Y20995D03*
X13010Y2775D03*
Y20995D03*
X14280Y2775D03*
Y20995D03*
X15550Y2775D03*
Y20995D03*
X16820Y2775D03*
Y20995D03*
X18090Y2775D03*
Y20995D03*
X19360Y2775D03*
Y20995D03*
X20630Y2775D03*
Y20995D03*
X21900Y2775D03*
Y20995D03*
X23170Y2775D03*
Y20995D03*
X24440Y2775D03*
Y20995D03*
X25710Y2775D03*
Y20995D03*
X27180Y4235D03*
Y5505D03*
Y6775D03*
Y8045D03*
Y9315D03*
Y10585D03*
Y11855D03*
Y13125D03*
Y14395D03*
Y15665D03*
Y16935D03*
Y18205D03*
Y19475D03*
D02*
D84*
X10400Y15875D03*
X12300Y15775D03*
X12350Y16975D03*
X13200Y9275D03*
X13400Y15475D03*
X13500Y6275D03*
X15200Y9775D03*
X16000Y11875D03*
X17950Y16675D03*
X18500Y8475D03*
Y10375D03*
X19800Y16675D03*
X20400Y8475D03*
Y10375D03*
X25750Y4176D03*
X0Y0D02*
M02*
